<svg viewBox="0 0 211 468" fill="none" xmlns="http://www.w3.org/2000/svg">
<g clip-path="url(#clip0_21_463)">
<rect width="211" height="468" rx="16" fill="#F8FAFC"/>
<path d="M-44.9232 300.013C9.43038 379.216 133.525 504.928 182.503 435C231.482 365.072 234.971 166.472 166.589 118.577C75.6373 54.874 6.1016 64.7494 -50.0938 177.513C-23.9232 241.513 -50.0938 177.513 -44.9232 300.013Z" fill="#FEE2E2"/>
<rect x="0.5" y="0.5" width="210" height="27" fill="#EF4444" stroke="#EF4444"/>
<circle cx="153" cy="15" r="6.5" fill="#F87171" stroke="#F87171"/>
<circle cx="174" cy="15" r="6.5" fill="#F87171" stroke="#F87171"/>
<circle cx="196" cy="15" r="6.5" fill="#F87171" stroke="#F87171"/>
<path d="M22 283.513H172.486V434H22V283.513Z" fill="#EF4444"/>
<path d="M45.5135 311.73L92.5406 358.757H45.5135V311.73Z" fill="#F87171"/>
<path d="M45.5135 363.459H92.5406V410.487L45.5135 363.459Z" fill="#F87171"/>
<path d="M97.2433 260L144.27 307.027H97.2433V260Z" fill="#F87171"/>
<path d="M45.5135 260H92.5406V307.027L45.5135 260Z" fill="#F87171"/>
<path d="M97.2433 311.73H144.27V358.757L97.2433 311.73Z" fill="#F87171"/>
<path d="M97.2433 363.459H144.27V410.487L97.2433 363.459Z" fill="#F87171"/>
<path d="M148.973 260H196V307.027L148.973 260Z" fill="#F87171"/>
<path d="M148.973 311.73L196 358.757H148.973V311.73Z" fill="#F87171"/>
<path d="M148.973 363.459H196L148.973 410.486V363.459Z" fill="#F87171"/>
<path d="M28.644 112.71C30.272 112.71 31.6947 113.025 32.912 113.656C34.144 114.272 35.09 115.167 35.75 116.34C36.4247 117.499 36.762 118.855 36.762 120.41C36.762 121.965 36.4247 123.314 35.75 124.458C35.09 125.602 34.144 126.482 32.912 127.098C31.6947 127.699 30.272 128 28.644 128H23.65V112.71H28.644ZM28.644 125.954C30.4333 125.954 31.8047 125.47 32.758 124.502C33.7113 123.534 34.188 122.17 34.188 120.41C34.188 118.635 33.7113 117.249 32.758 116.252C31.8047 115.255 30.4333 114.756 28.644 114.756H26.158V125.954H28.644ZM50.3577 121.642C50.3577 122.097 50.3283 122.507 50.2697 122.874H41.0077C41.081 123.842 41.4403 124.619 42.0857 125.206C42.731 125.793 43.523 126.086 44.4617 126.086C45.811 126.086 46.7643 125.521 47.3217 124.392H50.0277C49.661 125.507 48.9937 126.423 48.0257 127.142C47.0723 127.846 45.8843 128.198 44.4617 128.198C43.303 128.198 42.2617 127.941 41.3377 127.428C40.4283 126.9 39.7097 126.167 39.1817 125.228C38.6683 124.275 38.4117 123.175 38.4117 121.928C38.4117 120.681 38.661 119.589 39.1597 118.65C39.673 117.697 40.3843 116.963 41.2937 116.45C42.2177 115.937 43.2737 115.68 44.4617 115.68C45.6057 115.68 46.625 115.929 47.5197 116.428C48.4143 116.927 49.111 117.631 49.6097 118.54C50.1083 119.435 50.3577 120.469 50.3577 121.642ZM47.7397 120.85C47.725 119.926 47.395 119.185 46.7497 118.628C46.1043 118.071 45.305 117.792 44.3517 117.792C43.4863 117.792 42.7457 118.071 42.1297 118.628C41.5137 119.171 41.147 119.911 41.0297 120.85H47.7397ZM57.2258 128.198C56.2724 128.198 55.4144 128.029 54.6518 127.692C53.9038 127.34 53.3098 126.871 52.8698 126.284C52.4298 125.683 52.1951 125.015 52.1658 124.282H54.7618C54.8058 124.795 55.0478 125.228 55.4878 125.58C55.9424 125.917 56.5071 126.086 57.1818 126.086C57.8858 126.086 58.4284 125.954 58.8098 125.69C59.2058 125.411 59.4038 125.059 59.4038 124.634C59.4038 124.179 59.1838 123.842 58.7438 123.622C58.3184 123.402 57.6364 123.16 56.6978 122.896C55.7884 122.647 55.0478 122.405 54.4758 122.17C53.9038 121.935 53.4051 121.576 52.9798 121.092C52.5691 120.608 52.3638 119.97 52.3638 119.178C52.3638 118.533 52.5544 117.946 52.9358 117.418C53.3171 116.875 53.8598 116.45 54.5638 116.142C55.2824 115.834 56.1038 115.68 57.0278 115.68C58.4064 115.68 59.5138 116.032 60.3498 116.736C61.2004 117.425 61.6551 118.371 61.7138 119.574H59.2058C59.1618 119.031 58.9418 118.599 58.5458 118.276C58.1498 117.953 57.6144 117.792 56.9398 117.792C56.2798 117.792 55.7738 117.917 55.4218 118.166C55.0698 118.415 54.8938 118.745 54.8938 119.156C54.8938 119.479 55.0111 119.75 55.2458 119.97C55.4804 120.19 55.7664 120.366 56.1038 120.498C56.4411 120.615 56.9398 120.769 57.5998 120.96C58.4798 121.195 59.1984 121.437 59.7558 121.686C60.3278 121.921 60.8191 122.273 61.2298 122.742C61.6404 123.211 61.8531 123.835 61.8678 124.612C61.8678 125.301 61.6771 125.917 61.2958 126.46C60.9144 127.003 60.3718 127.428 59.6678 127.736C58.9784 128.044 58.1644 128.198 57.2258 128.198ZM65.8537 114.272C65.3991 114.272 65.0177 114.118 64.7097 113.81C64.4017 113.502 64.2477 113.121 64.2477 112.666C64.2477 112.211 64.4017 111.83 64.7097 111.522C65.0177 111.214 65.3991 111.06 65.8537 111.06C66.2937 111.06 66.6677 111.214 66.9757 111.522C67.2837 111.83 67.4377 112.211 67.4377 112.666C67.4377 113.121 67.2837 113.502 66.9757 113.81C66.6677 114.118 66.2937 114.272 65.8537 114.272ZM67.0857 115.878V128H64.5777V115.878H67.0857ZM75.2625 115.68C76.2012 115.68 77.0298 115.871 77.7485 116.252C78.4818 116.619 79.0538 117.081 79.4645 117.638V115.878H81.9945V128.198C81.9945 129.313 81.7598 130.303 81.2905 131.168C80.8212 132.048 80.1392 132.737 79.2445 133.236C78.3645 133.735 77.3085 133.984 76.0765 133.984C74.4338 133.984 73.0698 133.595 71.9845 132.818C70.8992 132.055 70.2832 131.014 70.1365 129.694H72.6225C72.8132 130.325 73.2165 130.831 73.8325 131.212C74.4632 131.608 75.2112 131.806 76.0765 131.806C77.0885 131.806 77.9025 131.498 78.5185 130.882C79.1492 130.266 79.4645 129.371 79.4645 128.198V126.174C79.0392 126.746 78.4598 127.23 77.7265 127.626C77.0078 128.007 76.1865 128.198 75.2625 128.198C74.2065 128.198 73.2385 127.934 72.3585 127.406C71.4932 126.863 70.8038 126.115 70.2905 125.162C69.7918 124.194 69.5425 123.101 69.5425 121.884C69.5425 120.667 69.7918 119.589 70.2905 118.65C70.8038 117.711 71.4932 116.985 72.3585 116.472C73.2385 115.944 74.2065 115.68 75.2625 115.68ZM79.4645 121.928C79.4645 121.092 79.2885 120.366 78.9365 119.75C78.5992 119.134 78.1518 118.665 77.5945 118.342C77.0372 118.019 76.4358 117.858 75.7905 117.858C75.1452 117.858 74.5438 118.019 73.9865 118.342C73.4292 118.65 72.9745 119.112 72.6225 119.728C72.2852 120.329 72.1165 121.048 72.1165 121.884C72.1165 122.72 72.2852 123.453 72.6225 124.084C72.9745 124.715 73.4292 125.199 73.9865 125.536C74.5585 125.859 75.1598 126.02 75.7905 126.02C76.4358 126.02 77.0372 125.859 77.5945 125.536C78.1518 125.213 78.5992 124.744 78.9365 124.128C79.2885 123.497 79.4645 122.764 79.4645 121.928ZM91.4047 115.68C92.358 115.68 93.2087 115.878 93.9567 116.274C94.7193 116.67 95.3133 117.257 95.7387 118.034C96.164 118.811 96.3767 119.75 96.3767 120.85V128H93.8907V121.224C93.8907 120.139 93.6193 119.31 93.0767 118.738C92.534 118.151 91.7933 117.858 90.8547 117.858C89.916 117.858 89.168 118.151 88.6107 118.738C88.068 119.31 87.7967 120.139 87.7967 121.224V128H85.2887V115.878H87.7967V117.264C88.2073 116.765 88.728 116.377 89.3587 116.098C90.004 115.819 90.686 115.68 91.4047 115.68ZM114.289 112.71V114.756H107.799V119.266H112.859V121.312H107.799V128H105.291V112.71H114.289ZM121.871 128.198C120.727 128.198 119.693 127.941 118.769 127.428C117.845 126.9 117.119 126.167 116.591 125.228C116.063 124.275 115.799 123.175 115.799 121.928C115.799 120.696 116.07 119.603 116.613 118.65C117.156 117.697 117.896 116.963 118.835 116.45C119.774 115.937 120.822 115.68 121.981 115.68C123.14 115.68 124.188 115.937 125.127 116.45C126.066 116.963 126.806 117.697 127.349 118.65C127.892 119.603 128.163 120.696 128.163 121.928C128.163 123.16 127.884 124.253 127.327 125.206C126.77 126.159 126.007 126.9 125.039 127.428C124.086 127.941 123.03 128.198 121.871 128.198ZM121.871 126.02C122.516 126.02 123.118 125.866 123.675 125.558C124.247 125.25 124.709 124.788 125.061 124.172C125.413 123.556 125.589 122.808 125.589 121.928C125.589 121.048 125.42 120.307 125.083 119.706C124.746 119.09 124.298 118.628 123.741 118.32C123.184 118.012 122.582 117.858 121.937 117.858C121.292 117.858 120.69 118.012 120.133 118.32C119.59 118.628 119.158 119.09 118.835 119.706C118.512 120.307 118.351 121.048 118.351 121.928C118.351 123.233 118.681 124.245 119.341 124.964C120.016 125.668 120.859 126.02 121.871 126.02ZM133.15 117.638C133.517 117.022 134.001 116.545 134.602 116.208C135.218 115.856 135.944 115.68 136.78 115.68V118.276H136.142C135.16 118.276 134.412 118.525 133.898 119.024C133.4 119.523 133.15 120.388 133.15 121.62V128H130.642V115.878H133.15V117.638ZM43.56 137.71L39.028 153H36.19L32.978 141.428L29.568 153L26.752 153.022L22.418 137.71H25.08L28.248 150.162L31.68 137.71H34.496L37.686 150.096L40.876 137.71H43.56ZM51.8985 140.68C52.8225 140.68 53.6438 140.878 54.3625 141.274C55.0958 141.67 55.6678 142.257 56.0785 143.034C56.5038 143.811 56.7165 144.75 56.7165 145.85V153H54.2305V146.224C54.2305 145.139 53.9592 144.31 53.4165 143.738C52.8738 143.151 52.1332 142.858 51.1945 142.858C50.2558 142.858 49.5078 143.151 48.9505 143.738C48.4078 144.31 48.1365 145.139 48.1365 146.224V153H45.6285V136.72H48.1365V142.286C48.5618 141.773 49.0972 141.377 49.7425 141.098C50.4025 140.819 51.1212 140.68 51.8985 140.68ZM59.0796 146.884C59.0796 145.667 59.329 144.589 59.8276 143.65C60.341 142.711 61.0303 141.985 61.8956 141.472C62.7756 140.944 63.7436 140.68 64.7996 140.68C65.753 140.68 66.5816 140.871 67.2856 141.252C68.0043 141.619 68.5763 142.081 69.0016 142.638V140.878H71.5316V153H69.0016V151.196C68.5763 151.768 67.997 152.245 67.2636 152.626C66.5303 153.007 65.6943 153.198 64.7556 153.198C63.7143 153.198 62.761 152.934 61.8956 152.406C61.0303 151.863 60.341 151.115 59.8276 150.162C59.329 149.194 59.0796 148.101 59.0796 146.884ZM69.0016 146.928C69.0016 146.092 68.8256 145.366 68.4736 144.75C68.1363 144.134 67.689 143.665 67.1316 143.342C66.5743 143.019 65.973 142.858 65.3276 142.858C64.6823 142.858 64.081 143.019 63.5236 143.342C62.9663 143.65 62.5116 144.112 62.1596 144.728C61.8223 145.329 61.6536 146.048 61.6536 146.884C61.6536 147.72 61.8223 148.453 62.1596 149.084C62.5116 149.715 62.9663 150.199 63.5236 150.536C64.0956 150.859 64.697 151.02 65.3276 151.02C65.973 151.02 66.5743 150.859 67.1316 150.536C67.689 150.213 68.1363 149.744 68.4736 149.128C68.8256 148.497 69.0016 147.764 69.0016 146.928ZM77.7518 142.924V149.634C77.7518 150.089 77.8544 150.419 78.0598 150.624C78.2798 150.815 78.6464 150.91 79.1598 150.91H80.6998V153H78.7198C77.5904 153 76.7251 152.736 76.1238 152.208C75.5224 151.68 75.2218 150.822 75.2218 149.634V142.924H73.7918V140.878H75.2218V137.864H77.7518V140.878H80.6998V142.924H77.7518ZM104.83 137.71V153H102.322V142.528L97.6582 153H95.9202L91.2342 142.528V153H88.7262V137.71H91.4322L96.8002 149.7L102.146 137.71H104.83ZM107.291 146.884C107.291 145.667 107.54 144.589 108.039 143.65C108.552 142.711 109.241 141.985 110.107 141.472C110.987 140.944 111.955 140.68 113.011 140.68C113.964 140.68 114.793 140.871 115.497 141.252C116.215 141.619 116.787 142.081 117.213 142.638V140.878H119.743V153H117.213V151.196C116.787 151.768 116.208 152.245 115.475 152.626C114.741 153.007 113.905 153.198 112.967 153.198C111.925 153.198 110.972 152.934 110.107 152.406C109.241 151.863 108.552 151.115 108.039 150.162C107.54 149.194 107.291 148.101 107.291 146.884ZM117.213 146.928C117.213 146.092 117.037 145.366 116.685 144.75C116.347 144.134 115.9 143.665 115.343 143.342C114.785 143.019 114.184 142.858 113.539 142.858C112.893 142.858 112.292 143.019 111.735 143.342C111.177 143.65 110.723 144.112 110.371 144.728C110.033 145.329 109.865 146.048 109.865 146.884C109.865 147.72 110.033 148.453 110.371 149.084C110.723 149.715 111.177 150.199 111.735 150.536C112.307 150.859 112.908 151.02 113.539 151.02C114.184 151.02 114.785 150.859 115.343 150.536C115.9 150.213 116.347 149.744 116.685 149.128C117.037 148.497 117.213 147.764 117.213 146.928ZM125.963 142.924V149.634C125.963 150.089 126.065 150.419 126.271 150.624C126.491 150.815 126.857 150.91 127.371 150.91H128.911V153H126.931C125.801 153 124.936 152.736 124.335 152.208C123.733 151.68 123.433 150.822 123.433 149.634V142.924H122.003V140.878H123.433V137.864H125.963V140.878H128.911V142.924H125.963ZM134.148 142.924V149.634C134.148 150.089 134.251 150.419 134.456 150.624C134.676 150.815 135.043 150.91 135.556 150.91H137.096V153H135.116C133.987 153 133.122 152.736 132.52 152.208C131.919 151.68 131.618 150.822 131.618 149.634V142.924H130.188V140.878H131.618V137.864H134.148V140.878H137.096V142.924H134.148ZM150.518 146.642C150.518 147.097 150.488 147.507 150.43 147.874H141.168C141.241 148.842 141.6 149.619 142.246 150.206C142.891 150.793 143.683 151.086 144.622 151.086C145.971 151.086 146.924 150.521 147.482 149.392H150.188C149.821 150.507 149.154 151.423 148.186 152.142C147.232 152.846 146.044 153.198 144.622 153.198C143.463 153.198 142.422 152.941 141.498 152.428C140.588 151.9 139.87 151.167 139.342 150.228C138.828 149.275 138.572 148.175 138.572 146.928C138.572 145.681 138.821 144.589 139.32 143.65C139.833 142.697 140.544 141.963 141.454 141.45C142.378 140.937 143.434 140.68 144.622 140.68C145.766 140.68 146.785 140.929 147.68 141.428C148.574 141.927 149.271 142.631 149.77 143.54C150.268 144.435 150.518 145.469 150.518 146.642ZM147.9 145.85C147.885 144.926 147.555 144.185 146.91 143.628C146.264 143.071 145.465 142.792 144.512 142.792C143.646 142.792 142.906 143.071 142.29 143.628C141.674 144.171 141.307 144.911 141.19 145.85H147.9ZM155.494 142.638C155.861 142.022 156.345 141.545 156.946 141.208C157.562 140.856 158.288 140.68 159.124 140.68V143.276H158.486C157.503 143.276 156.755 143.525 156.242 144.024C155.743 144.523 155.494 145.388 155.494 146.62V153H152.986V140.878H155.494V142.638ZM165.829 153.198C164.876 153.198 164.018 153.029 163.255 152.692C162.507 152.34 161.913 151.871 161.473 151.284C161.033 150.683 160.799 150.015 160.769 149.282H163.365C163.409 149.795 163.651 150.228 164.091 150.58C164.546 150.917 165.111 151.086 165.785 151.086C166.489 151.086 167.032 150.954 167.413 150.69C167.809 150.411 168.007 150.059 168.007 149.634C168.007 149.179 167.787 148.842 167.347 148.622C166.922 148.402 166.24 148.16 165.301 147.896C164.392 147.647 163.651 147.405 163.079 147.17C162.507 146.935 162.009 146.576 161.583 146.092C161.173 145.608 160.967 144.97 160.967 144.178C160.967 143.533 161.158 142.946 161.539 142.418C161.921 141.875 162.463 141.45 163.167 141.142C163.886 140.834 164.707 140.68 165.631 140.68C167.01 140.68 168.117 141.032 168.953 141.736C169.804 142.425 170.259 143.371 170.317 144.574H167.809C167.765 144.031 167.545 143.599 167.149 143.276C166.753 142.953 166.218 142.792 165.543 142.792C164.883 142.792 164.377 142.917 164.025 143.166C163.673 143.415 163.497 143.745 163.497 144.156C163.497 144.479 163.615 144.75 163.849 144.97C164.084 145.19 164.37 145.366 164.707 145.498C165.045 145.615 165.543 145.769 166.203 145.96C167.083 146.195 167.802 146.437 168.359 146.686C168.931 146.921 169.423 147.273 169.833 147.742C170.244 148.211 170.457 148.835 170.471 149.612C170.471 150.301 170.281 150.917 169.899 151.46C169.518 152.003 168.975 152.428 168.271 152.736C167.582 153.044 166.768 153.198 165.829 153.198ZM29.336 164.27V165.572H26.746V174H25.15V165.572H22.546V164.27H29.336ZM34.9423 166.16C35.5303 166.16 36.053 166.286 36.5103 166.538C36.977 166.79 37.341 167.163 37.6023 167.658C37.873 168.153 38.0083 168.75 38.0083 169.45V174H36.4263V169.688C36.4263 168.997 36.2537 168.47 35.9083 168.106C35.563 167.733 35.0917 167.546 34.4943 167.546C33.897 167.546 33.421 167.733 33.0663 168.106C32.721 168.47 32.5483 168.997 32.5483 169.688V174H30.9523V163.64H32.5483V167.182C32.819 166.855 33.1597 166.603 33.5703 166.426C33.9903 166.249 34.4477 166.16 34.9423 166.16ZM39.5121 170.108C39.5121 169.333 39.6708 168.647 39.9881 168.05C40.3148 167.453 40.7535 166.991 41.3041 166.664C41.8641 166.328 42.4801 166.16 43.1521 166.16C43.7588 166.16 44.2861 166.281 44.7341 166.524C45.1915 166.757 45.5555 167.051 45.8261 167.406V166.286H47.4361V174H45.8261V172.852C45.5555 173.216 45.1868 173.519 44.7201 173.762C44.2535 174.005 43.7215 174.126 43.1241 174.126C42.4615 174.126 41.8548 173.958 41.3041 173.622C40.7535 173.277 40.3148 172.801 39.9881 172.194C39.6708 171.578 39.5121 170.883 39.5121 170.108ZM45.8261 170.136C45.8261 169.604 45.7141 169.142 45.4901 168.75C45.2755 168.358 44.9908 168.059 44.6361 167.854C44.2815 167.649 43.8988 167.546 43.4881 167.546C43.0775 167.546 42.6948 167.649 42.3401 167.854C41.9855 168.05 41.6961 168.344 41.4721 168.736C41.2575 169.119 41.1501 169.576 41.1501 170.108C41.1501 170.64 41.2575 171.107 41.4721 171.508C41.6961 171.909 41.9855 172.217 42.3401 172.432C42.7041 172.637 43.0868 172.74 43.4881 172.74C43.8988 172.74 44.2815 172.637 44.6361 172.432C44.9908 172.227 45.2755 171.928 45.4901 171.536C45.7141 171.135 45.8261 170.668 45.8261 170.136ZM51.3944 167.588V171.858C51.3944 172.147 51.4598 172.357 51.5904 172.488C51.7304 172.609 51.9638 172.67 52.2904 172.67H53.2704V174H52.0104C51.2918 174 50.7411 173.832 50.3584 173.496C49.9758 173.16 49.7844 172.614 49.7844 171.858V167.588H48.8744V166.286H49.7844V164.368H51.3944V166.286H53.2704V167.588H51.3944ZM54.9934 164.27H56.7294L55.2594 167.602H54.1394L54.9934 164.27ZM60.932 174.126C60.3254 174.126 59.7794 174.019 59.294 173.804C58.818 173.58 58.44 173.281 58.16 172.908C57.88 172.525 57.7307 172.101 57.712 171.634H59.364C59.392 171.961 59.546 172.236 59.826 172.46C60.1154 172.675 60.4747 172.782 60.904 172.782C61.352 172.782 61.6974 172.698 61.94 172.53C62.192 172.353 62.318 172.129 62.318 171.858C62.318 171.569 62.178 171.354 61.898 171.214C61.6274 171.074 61.1934 170.92 60.596 170.752C60.0174 170.593 59.546 170.439 59.182 170.29C58.818 170.141 58.5007 169.912 58.23 169.604C57.9687 169.296 57.838 168.89 57.838 168.386C57.838 167.975 57.9594 167.602 58.202 167.266C58.4447 166.921 58.79 166.65 59.238 166.454C59.6954 166.258 60.218 166.16 60.806 166.16C61.6834 166.16 62.388 166.384 62.92 166.832C63.4614 167.271 63.7507 167.873 63.788 168.638H62.192C62.164 168.293 62.024 168.017 61.772 167.812C61.52 167.607 61.1794 167.504 60.75 167.504C60.33 167.504 60.008 167.583 59.784 167.742C59.56 167.901 59.448 168.111 59.448 168.372C59.448 168.577 59.5227 168.75 59.672 168.89C59.8214 169.03 60.0034 169.142 60.218 169.226C60.4327 169.301 60.75 169.399 61.17 169.52C61.73 169.669 62.1874 169.823 62.542 169.982C62.906 170.131 63.2187 170.355 63.48 170.654C63.7414 170.953 63.8767 171.349 63.886 171.844C63.886 172.283 63.7647 172.675 63.522 173.02C63.2794 173.365 62.934 173.636 62.486 173.832C62.0474 174.028 61.5294 174.126 60.932 174.126ZM79.6073 166.286L77.2133 174H75.5333L73.9793 168.302L72.4253 174H70.7453L68.3373 166.286H69.9613L71.5713 172.488L73.2093 166.286H74.8753L76.4433 172.46L78.0393 166.286H79.6073ZM84.79 166.16C85.378 166.16 85.9007 166.286 86.358 166.538C86.8247 166.79 87.1887 167.163 87.45 167.658C87.7207 168.153 87.856 168.75 87.856 169.45V174H86.274V169.688C86.274 168.997 86.1013 168.47 85.756 168.106C85.4107 167.733 84.9393 167.546 84.342 167.546C83.7447 167.546 83.2687 167.733 82.914 168.106C82.5687 168.47 82.396 168.997 82.396 169.688V174H80.8V163.64H82.396V167.182C82.6667 166.855 83.0073 166.603 83.418 166.426C83.838 166.249 84.2953 166.16 84.79 166.16ZM89.3598 170.108C89.3598 169.333 89.5185 168.647 89.8358 168.05C90.1625 167.453 90.6011 166.991 91.1518 166.664C91.7118 166.328 92.3278 166.16 92.9998 166.16C93.6065 166.16 94.1338 166.281 94.5818 166.524C95.0391 166.757 95.4031 167.051 95.6738 167.406V166.286H97.2838V174H95.6738V172.852C95.4031 173.216 95.0345 173.519 94.5678 173.762C94.1011 174.005 93.5691 174.126 92.9718 174.126C92.3091 174.126 91.7025 173.958 91.1518 173.622C90.6011 173.277 90.1625 172.801 89.8358 172.194C89.5185 171.578 89.3598 170.883 89.3598 170.108ZM95.6738 170.136C95.6738 169.604 95.5618 169.142 95.3378 168.75C95.1231 168.358 94.8385 168.059 94.4838 167.854C94.1291 167.649 93.7465 167.546 93.3358 167.546C92.9251 167.546 92.5425 167.649 92.1878 167.854C91.8331 168.05 91.5438 168.344 91.3198 168.736C91.1051 169.119 90.9978 169.576 90.9978 170.108C90.9978 170.64 91.1051 171.107 91.3198 171.508C91.5438 171.909 91.8331 172.217 92.1878 172.432C92.5518 172.637 92.9345 172.74 93.3358 172.74C93.7465 172.74 94.1291 172.637 94.4838 172.432C94.8385 172.227 95.1231 171.928 95.3378 171.536C95.5618 171.135 95.6738 170.668 95.6738 170.136ZM101.242 167.588V171.858C101.242 172.147 101.307 172.357 101.438 172.488C101.578 172.609 101.811 172.67 102.138 172.67H103.118V174H101.858C101.139 174 100.589 173.832 100.206 173.496C99.8234 173.16 99.6321 172.614 99.6321 171.858V167.588H98.7221V166.286H99.6321V164.368H101.242V166.286H103.118V167.588H101.242ZM118.586 166.286L116.192 174H114.512L112.958 168.302L111.404 174H109.724L107.316 166.286H108.94L110.55 172.488L112.188 166.286H113.854L115.422 172.46L117.018 166.286H118.586ZM126.849 169.954C126.849 170.243 126.83 170.505 126.793 170.738H120.899C120.945 171.354 121.174 171.849 121.585 172.222C121.995 172.595 122.499 172.782 123.097 172.782C123.955 172.782 124.562 172.423 124.917 171.704H126.639C126.405 172.413 125.981 172.997 125.365 173.454C124.758 173.902 124.002 174.126 123.097 174.126C122.359 174.126 121.697 173.963 121.109 173.636C120.53 173.3 120.073 172.833 119.737 172.236C119.41 171.629 119.247 170.929 119.247 170.136C119.247 169.343 119.405 168.647 119.723 168.05C120.049 167.443 120.502 166.977 121.081 166.65C121.669 166.323 122.341 166.16 123.097 166.16C123.825 166.16 124.473 166.319 125.043 166.636C125.612 166.953 126.055 167.401 126.373 167.98C126.69 168.549 126.849 169.207 126.849 169.954ZM125.183 169.45C125.173 168.862 124.963 168.391 124.553 168.036C124.142 167.681 123.633 167.504 123.027 167.504C122.476 167.504 122.005 167.681 121.613 168.036C121.221 168.381 120.987 168.853 120.913 169.45H125.183ZM131.524 170.108C131.524 169.333 131.683 168.647 132 168.05C132.327 167.453 132.765 166.991 133.316 166.664C133.876 166.328 134.497 166.16 135.178 166.16C135.682 166.16 136.177 166.272 136.662 166.496C137.157 166.711 137.549 167 137.838 167.364V163.64H139.448V174H137.838V172.838C137.577 173.211 137.213 173.519 136.746 173.762C136.289 174.005 135.761 174.126 135.164 174.126C134.492 174.126 133.876 173.958 133.316 173.622C132.765 173.277 132.327 172.801 132 172.194C131.683 171.578 131.524 170.883 131.524 170.108ZM137.838 170.136C137.838 169.604 137.726 169.142 137.502 168.75C137.287 168.358 137.003 168.059 136.648 167.854C136.293 167.649 135.911 167.546 135.5 167.546C135.089 167.546 134.707 167.649 134.352 167.854C133.997 168.05 133.708 168.344 133.484 168.736C133.269 169.119 133.162 169.576 133.162 170.108C133.162 170.64 133.269 171.107 133.484 171.508C133.708 171.909 133.997 172.217 134.352 172.432C134.716 172.637 135.099 172.74 135.5 172.74C135.911 172.74 136.293 172.637 136.648 172.432C137.003 172.227 137.287 171.928 137.502 171.536C137.726 171.135 137.838 170.668 137.838 170.136ZM144.89 174.126C144.162 174.126 143.504 173.963 142.916 173.636C142.328 173.3 141.866 172.833 141.53 172.236C141.194 171.629 141.026 170.929 141.026 170.136C141.026 169.352 141.199 168.657 141.544 168.05C141.889 167.443 142.361 166.977 142.958 166.65C143.555 166.323 144.223 166.16 144.96 166.16C145.697 166.16 146.365 166.323 146.962 166.65C147.559 166.977 148.031 167.443 148.376 168.05C148.721 168.657 148.894 169.352 148.894 170.136C148.894 170.92 148.717 171.615 148.362 172.222C148.007 172.829 147.522 173.3 146.906 173.636C146.299 173.963 145.627 174.126 144.89 174.126ZM144.89 172.74C145.301 172.74 145.683 172.642 146.038 172.446C146.402 172.25 146.696 171.956 146.92 171.564C147.144 171.172 147.256 170.696 147.256 170.136C147.256 169.576 147.149 169.105 146.934 168.722C146.719 168.33 146.435 168.036 146.08 167.84C145.725 167.644 145.343 167.546 144.932 167.546C144.521 167.546 144.139 167.644 143.784 167.84C143.439 168.036 143.163 168.33 142.958 168.722C142.753 169.105 142.65 169.576 142.65 170.136C142.65 170.967 142.86 171.611 143.28 172.068C143.709 172.516 144.246 172.74 144.89 172.74Z" fill="#B91C1C"/>
<path d="M22 190C22 187.791 23.7909 186 26 186H72.0378C74.2469 186 76.0378 187.791 76.0378 190V202.534C76.0378 204.744 74.2469 206.534 72.0378 206.534H26C23.7909 206.534 22 204.744 22 202.534V190Z" fill="#EF4444"/>
<rect x="89.0378" y="187" width="52.0378" height="18.5344" rx="3" stroke="#B91C1C" stroke-width="2"/>
<path d="M24.36 46L22.76 43.22H21.89V46H20.75V39.05H23.15C23.6833 39.05 24.1333 39.1433 24.5 39.33C24.8733 39.5167 25.15 39.7667 25.33 40.08C25.5167 40.3933 25.61 40.7433 25.61 41.13C25.61 41.5833 25.4767 41.9967 25.21 42.37C24.95 42.7367 24.5467 42.9867 24 43.12L25.72 46H24.36ZM21.89 42.31H23.15C23.5767 42.31 23.8967 42.2033 24.11 41.99C24.33 41.7767 24.44 41.49 24.44 41.13C24.44 40.77 24.3333 40.49 24.12 40.29C23.9067 40.0833 23.5833 39.98 23.15 39.98H21.89V42.31ZM29.4584 46.09C28.9384 46.09 28.4684 45.9733 28.0484 45.74C27.6284 45.5 27.2984 45.1667 27.0584 44.74C26.8184 44.3067 26.6984 43.8067 26.6984 43.24C26.6984 42.68 26.8217 42.1833 27.0684 41.75C27.315 41.3167 27.6517 40.9833 28.0784 40.75C28.505 40.5167 28.9817 40.4 29.5084 40.4C30.035 40.4 30.5117 40.5167 30.9384 40.75C31.365 40.9833 31.7017 41.3167 31.9484 41.75C32.195 42.1833 32.3184 42.68 32.3184 43.24C32.3184 43.8 32.1917 44.2967 31.9384 44.73C31.685 45.1633 31.3384 45.5 30.8984 45.74C30.465 45.9733 29.985 46.09 29.4584 46.09ZM29.4584 45.1C29.7517 45.1 30.025 45.03 30.2784 44.89C30.5384 44.75 30.7484 44.54 30.9084 44.26C31.0684 43.98 31.1484 43.64 31.1484 43.24C31.1484 42.84 31.0717 42.5033 30.9184 42.23C30.765 41.95 30.5617 41.74 30.3084 41.6C30.055 41.46 29.7817 41.39 29.4884 41.39C29.195 41.39 28.9217 41.46 28.6684 41.6C28.4217 41.74 28.225 41.95 28.0784 42.23C27.9317 42.5033 27.8584 42.84 27.8584 43.24C27.8584 43.8333 28.0084 44.2933 28.3084 44.62C28.615 44.94 28.9984 45.1 29.4584 45.1ZM35.4453 46.09C35.012 46.09 34.622 46.0133 34.2753 45.86C33.9353 45.7 33.6653 45.4867 33.4653 45.22C33.2653 44.9467 33.1586 44.6433 33.1453 44.31H34.3253C34.3453 44.5433 34.4553 44.74 34.6553 44.9C34.862 45.0533 35.1186 45.13 35.4253 45.13C35.7453 45.13 35.992 45.07 36.1653 44.95C36.3453 44.8233 36.4353 44.6633 36.4353 44.47C36.4353 44.2633 36.3353 44.11 36.1353 44.01C35.942 43.91 35.632 43.8 35.2053 43.68C34.792 43.5667 34.4553 43.4567 34.1953 43.35C33.9353 43.2433 33.7086 43.08 33.5153 42.86C33.3286 42.64 33.2353 42.35 33.2353 41.99C33.2353 41.6967 33.322 41.43 33.4953 41.19C33.6686 40.9433 33.9153 40.75 34.2353 40.61C34.562 40.47 34.9353 40.4 35.3553 40.4C35.982 40.4 36.4853 40.56 36.8653 40.88C37.252 41.1933 37.4586 41.6233 37.4853 42.17H36.3453C36.3253 41.9233 36.2253 41.7267 36.0453 41.58C35.8653 41.4333 35.622 41.36 35.3153 41.36C35.0153 41.36 34.7853 41.4167 34.6253 41.53C34.4653 41.6433 34.3853 41.7933 34.3853 41.98C34.3853 42.1267 34.4386 42.25 34.5453 42.35C34.652 42.45 34.782 42.53 34.9353 42.59C35.0886 42.6433 35.3153 42.7133 35.6153 42.8C36.0153 42.9067 36.342 43.0167 36.5953 43.13C36.8553 43.2367 37.0786 43.3967 37.2653 43.61C37.452 43.8233 37.5486 44.1067 37.5553 44.46C37.5553 44.7733 37.4686 45.0533 37.2953 45.3C37.122 45.5467 36.8753 45.74 36.5553 45.88C36.242 46.02 35.872 46.09 35.4453 46.09ZM43.8371 43.11C43.8371 43.3167 43.8238 43.5033 43.7971 43.67H39.5871C39.6204 44.11 39.7838 44.4633 40.0771 44.73C40.3704 44.9967 40.7304 45.13 41.1571 45.13C41.7704 45.13 42.2038 44.8733 42.4571 44.36H43.6871C43.5204 44.8667 43.2171 45.2833 42.7771 45.61C42.3438 45.93 41.8038 46.09 41.1571 46.09C40.6304 46.09 40.1571 45.9733 39.7371 45.74C39.3238 45.5 38.9971 45.1667 38.7571 44.74C38.5238 44.3067 38.4071 43.8067 38.4071 43.24C38.4071 42.6733 38.5204 42.1767 38.7471 41.75C38.9804 41.3167 39.3038 40.9833 39.7171 40.75C40.1371 40.5167 40.6171 40.4 41.1571 40.4C41.6771 40.4 42.1404 40.5133 42.5471 40.74C42.9538 40.9667 43.2704 41.2867 43.4971 41.7C43.7238 42.1067 43.8371 42.5767 43.8371 43.11ZM42.6471 42.75C42.6404 42.33 42.4904 41.9933 42.1971 41.74C41.9038 41.4867 41.5404 41.36 41.1071 41.36C40.7138 41.36 40.3771 41.4867 40.0971 41.74C39.8171 41.9867 39.6504 42.3233 39.5971 42.75H42.6471ZM54.009 39.05L51.949 46H50.659L49.199 40.74L47.649 46L46.369 46.01L44.399 39.05H45.609L47.049 44.71L48.609 39.05H49.889L51.339 44.68L52.789 39.05H54.009ZM56.0892 41.29C56.2559 41.01 56.4759 40.7933 56.7492 40.64C57.0292 40.48 57.3592 40.4 57.7392 40.4V41.58H57.4492C57.0026 41.58 56.6626 41.6933 56.4292 41.92C56.2026 42.1467 56.0892 42.54 56.0892 43.1V46H54.9492V40.49H56.0892V41.29ZM59.3671 39.76C59.1604 39.76 58.9871 39.69 58.8471 39.55C58.7071 39.41 58.6371 39.2367 58.6371 39.03C58.6371 38.8233 58.7071 38.65 58.8471 38.51C58.9871 38.37 59.1604 38.3 59.3671 38.3C59.5671 38.3 59.7371 38.37 59.8771 38.51C60.0171 38.65 60.0871 38.8233 60.0871 39.03C60.0871 39.2367 60.0171 39.41 59.8771 39.55C59.7371 39.69 59.5671 39.76 59.3671 39.76ZM59.9271 40.49V46H58.7871V40.49H59.9271ZM63.6438 40.4C64.0705 40.4 64.4472 40.4867 64.7738 40.66C65.1072 40.8267 65.3672 41.0367 65.5538 41.29V40.49H66.7038V46.09C66.7038 46.5967 66.5972 47.0467 66.3838 47.44C66.1705 47.84 65.8605 48.1533 65.4538 48.38C65.0538 48.6067 64.5738 48.72 64.0138 48.72C63.2672 48.72 62.6472 48.5433 62.1538 48.19C61.6605 47.8433 61.3805 47.37 61.3138 46.77H62.4438C62.5305 47.0567 62.7138 47.2867 62.9938 47.46C63.2805 47.64 63.6205 47.73 64.0138 47.73C64.4738 47.73 64.8438 47.59 65.1238 47.31C65.4105 47.03 65.5538 46.6233 65.5538 46.09V45.17C65.3605 45.43 65.0972 45.65 64.7638 45.83C64.4372 46.0033 64.0638 46.09 63.6438 46.09C63.1638 46.09 62.7238 45.97 62.3238 45.73C61.9305 45.4833 61.6172 45.1433 61.3838 44.71C61.1572 44.27 61.0438 43.7733 61.0438 43.22C61.0438 42.6667 61.1572 42.1767 61.3838 41.75C61.6172 41.3233 61.9305 40.9933 62.3238 40.76C62.7238 40.52 63.1638 40.4 63.6438 40.4ZM65.5538 43.24C65.5538 42.86 65.4738 42.53 65.3138 42.25C65.1605 41.97 64.9572 41.7567 64.7038 41.61C64.4505 41.4633 64.1772 41.39 63.8838 41.39C63.5905 41.39 63.3172 41.4633 63.0638 41.61C62.8105 41.75 62.6038 41.96 62.4438 42.24C62.2905 42.5133 62.2138 42.84 62.2138 43.22C62.2138 43.6 62.2905 43.9333 62.4438 44.22C62.6038 44.5067 62.8105 44.7267 63.0638 44.88C63.3238 45.0267 63.5972 45.1 63.8838 45.1C64.1772 45.1 64.4505 45.0267 64.7038 44.88C64.9572 44.7333 65.1605 44.52 65.3138 44.24C65.4738 43.9533 65.5538 43.62 65.5538 43.24ZM71.0512 40.4C71.4712 40.4 71.8445 40.49 72.1712 40.67C72.5045 40.85 72.7645 41.1167 72.9512 41.47C73.1445 41.8233 73.2412 42.25 73.2412 42.75V46H72.1112V42.92C72.1112 42.4267 71.9878 42.05 71.7412 41.79C71.4945 41.5233 71.1578 41.39 70.7312 41.39C70.3045 41.39 69.9645 41.5233 69.7112 41.79C69.4645 42.05 69.3412 42.4267 69.3412 42.92V46H68.2012V38.6H69.3412V41.13C69.5345 40.8967 69.7778 40.7167 70.0712 40.59C70.3712 40.4633 70.6978 40.4 71.0512 40.4ZM76.0253 41.42V44.47C76.0253 44.6767 76.072 44.8267 76.1653 44.92C76.2653 45.0067 76.432 45.05 76.6653 45.05H77.3653V46H76.4653C75.952 46 75.5586 45.88 75.2853 45.64C75.012 45.4 74.8753 45.01 74.8753 44.47V41.42H74.2253V40.49H74.8753V39.12H76.0253V40.49H77.3653V41.42H76.0253ZM78.876 46.07C78.6693 46.07 78.496 46 78.356 45.86C78.216 45.72 78.146 45.5467 78.146 45.34C78.146 45.1333 78.216 44.96 78.356 44.82C78.496 44.68 78.6693 44.61 78.876 44.61C79.076 44.61 79.246 44.68 79.386 44.82C79.526 44.96 79.596 45.1333 79.596 45.34C79.596 45.5467 79.526 45.72 79.386 45.86C79.246 46 79.076 46.07 78.876 46.07ZM80.4481 43.22C80.4481 42.6667 80.5615 42.1767 80.7881 41.75C81.0215 41.3233 81.3348 40.9933 81.7281 40.76C82.1281 40.52 82.5715 40.4 83.0581 40.4C83.4181 40.4 83.7715 40.48 84.1181 40.64C84.4715 40.7933 84.7515 41 84.9581 41.26V38.6H86.1081V46H84.9581V45.17C84.7715 45.4367 84.5115 45.6567 84.1781 45.83C83.8515 46.0033 83.4748 46.09 83.0481 46.09C82.5681 46.09 82.1281 45.97 81.7281 45.73C81.3348 45.4833 81.0215 45.1433 80.7881 44.71C80.5615 44.27 80.4481 43.7733 80.4481 43.22ZM84.9581 43.24C84.9581 42.86 84.8781 42.53 84.7181 42.25C84.5648 41.97 84.3615 41.7567 84.1081 41.61C83.8548 41.4633 83.5815 41.39 83.2881 41.39C82.9948 41.39 82.7215 41.4633 82.4681 41.61C82.2148 41.75 82.0081 41.96 81.8481 42.24C81.6948 42.5133 81.6181 42.84 81.6181 43.22C81.6181 43.6 81.6948 43.9333 81.8481 44.22C82.0081 44.5067 82.2148 44.7267 82.4681 44.88C82.7281 45.0267 83.0015 45.1 83.2881 45.1C83.5815 45.1 83.8548 45.0267 84.1081 44.88C84.3615 44.7333 84.5648 44.52 84.7181 44.24C84.8781 43.9533 84.9581 43.62 84.9581 43.24ZM92.6555 43.11C92.6555 43.3167 92.6421 43.5033 92.6155 43.67H88.4055C88.4388 44.11 88.6021 44.4633 88.8955 44.73C89.1888 44.9967 89.5488 45.13 89.9755 45.13C90.5888 45.13 91.0221 44.8733 91.2755 44.36H92.5055C92.3388 44.8667 92.0355 45.2833 91.5955 45.61C91.1621 45.93 90.6221 46.09 89.9755 46.09C89.4488 46.09 88.9755 45.9733 88.5555 45.74C88.1421 45.5 87.8155 45.1667 87.5755 44.74C87.3421 44.3067 87.2255 43.8067 87.2255 43.24C87.2255 42.6733 87.3388 42.1767 87.5655 41.75C87.7988 41.3167 88.1221 40.9833 88.5355 40.75C88.9555 40.5167 89.4355 40.4 89.9755 40.4C90.4955 40.4 90.9588 40.5133 91.3655 40.74C91.7721 40.9667 92.0888 41.2867 92.3155 41.7C92.5421 42.1067 92.6555 42.5767 92.6555 43.11ZM91.4655 42.75C91.4588 42.33 91.3088 41.9933 91.0155 41.74C90.7221 41.4867 90.3588 41.36 89.9255 41.36C89.5321 41.36 89.1955 41.4867 88.9155 41.74C88.6355 41.9867 88.4688 42.3233 88.4155 42.75H91.4655ZM95.9073 44.98L97.4673 40.49H98.6773L96.5773 46H95.2173L93.1273 40.49H94.3473L95.9073 44.98Z" fill="#B91C1C"/>
<rect x="179" y="38" width="17" height="1.5" fill="#B91C1C"/>
<rect x="179" y="41" width="17" height="1.5" fill="#B91C1C"/>
<rect x="179" y="44" width="17" height="1.5" fill="#B91C1C"/>
<path d="M107.46 200H106.32L102.89 194.81V200H101.75V193.04H102.89L106.32 198.22V193.04H107.46V200ZM114.007 197.11C114.007 197.317 113.994 197.503 113.967 197.67H109.757C109.79 198.11 109.954 198.463 110.247 198.73C110.54 198.997 110.9 199.13 111.327 199.13C111.94 199.13 112.374 198.873 112.627 198.36H113.857C113.69 198.867 113.387 199.283 112.947 199.61C112.514 199.93 111.974 200.09 111.327 200.09C110.8 200.09 110.327 199.973 109.907 199.74C109.494 199.5 109.167 199.167 108.927 198.74C108.694 198.307 108.577 197.807 108.577 197.24C108.577 196.673 108.69 196.177 108.917 195.75C109.15 195.317 109.474 194.983 109.887 194.75C110.307 194.517 110.787 194.4 111.327 194.4C111.847 194.4 112.31 194.513 112.717 194.74C113.124 194.967 113.44 195.287 113.667 195.7C113.894 196.107 114.007 196.577 114.007 197.11ZM112.817 196.75C112.81 196.33 112.66 195.993 112.367 195.74C112.074 195.487 111.71 195.36 111.277 195.36C110.884 195.36 110.547 195.487 110.267 195.74C109.987 195.987 109.82 196.323 109.767 196.75H112.817ZM122.529 194.49L120.819 200H119.619L118.509 195.93L117.399 200H116.199L114.479 194.49H115.639L116.789 198.92L117.959 194.49H119.149L120.269 198.9L121.409 194.49H122.529ZM125.381 200.09C124.948 200.09 124.558 200.013 124.211 199.86C123.871 199.7 123.601 199.487 123.401 199.22C123.201 198.947 123.094 198.643 123.081 198.31H124.261C124.281 198.543 124.391 198.74 124.591 198.9C124.798 199.053 125.054 199.13 125.361 199.13C125.681 199.13 125.928 199.07 126.101 198.95C126.281 198.823 126.371 198.663 126.371 198.47C126.371 198.263 126.271 198.11 126.071 198.01C125.878 197.91 125.568 197.8 125.141 197.68C124.728 197.567 124.391 197.457 124.131 197.35C123.871 197.243 123.644 197.08 123.451 196.86C123.264 196.64 123.171 196.35 123.171 195.99C123.171 195.697 123.258 195.43 123.431 195.19C123.604 194.943 123.851 194.75 124.171 194.61C124.498 194.47 124.871 194.4 125.291 194.4C125.918 194.4 126.421 194.56 126.801 194.88C127.188 195.193 127.394 195.623 127.421 196.17H126.281C126.261 195.923 126.161 195.727 125.981 195.58C125.801 195.433 125.558 195.36 125.251 195.36C124.951 195.36 124.721 195.417 124.561 195.53C124.401 195.643 124.321 195.793 124.321 195.98C124.321 196.127 124.374 196.25 124.481 196.35C124.588 196.45 124.718 196.53 124.871 196.59C125.024 196.643 125.251 196.713 125.551 196.8C125.951 196.907 126.278 197.017 126.531 197.13C126.791 197.237 127.014 197.397 127.201 197.61C127.388 197.823 127.484 198.107 127.491 198.46C127.491 198.773 127.404 199.053 127.231 199.3C127.058 199.547 126.811 199.74 126.491 199.88C126.178 200.02 125.808 200.09 125.381 200.09Z" fill="#B91C1C"/>
<path d="M34.61 195.12C34.61 195.473 34.5267 195.807 34.36 196.12C34.1933 196.433 33.9267 196.69 33.56 196.89C33.1933 197.083 32.7233 197.18 32.15 197.18H30.89V200H29.75V193.05H32.15C32.6833 193.05 33.1333 193.143 33.5 193.33C33.8733 193.51 34.15 193.757 34.33 194.07C34.5167 194.383 34.61 194.733 34.61 195.12ZM32.15 196.25C32.5833 196.25 32.9067 196.153 33.12 195.96C33.3333 195.76 33.44 195.48 33.44 195.12C33.44 194.36 33.01 193.98 32.15 193.98H30.89V196.25H32.15ZM36.8373 195.29C37.0039 195.01 37.2239 194.793 37.4973 194.64C37.7773 194.48 38.1073 194.4 38.4873 194.4V195.58H38.1973C37.7506 195.58 37.4106 195.693 37.1773 195.92C36.9506 196.147 36.8373 196.54 36.8373 197.1V200H35.6973V194.49H36.8373V195.29ZM41.9252 200.09C41.4052 200.09 40.9352 199.973 40.5152 199.74C40.0952 199.5 39.7652 199.167 39.5252 198.74C39.2852 198.307 39.1652 197.807 39.1652 197.24C39.1652 196.68 39.2885 196.183 39.5352 195.75C39.7818 195.317 40.1185 194.983 40.5452 194.75C40.9718 194.517 41.4485 194.4 41.9752 194.4C42.5018 194.4 42.9785 194.517 43.4052 194.75C43.8318 194.983 44.1685 195.317 44.4152 195.75C44.6618 196.183 44.7852 196.68 44.7852 197.24C44.7852 197.8 44.6585 198.297 44.4052 198.73C44.1518 199.163 43.8052 199.5 43.3652 199.74C42.9318 199.973 42.4518 200.09 41.9252 200.09ZM41.9252 199.1C42.2185 199.1 42.4918 199.03 42.7452 198.89C43.0052 198.75 43.2152 198.54 43.3752 198.26C43.5352 197.98 43.6152 197.64 43.6152 197.24C43.6152 196.84 43.5385 196.503 43.3852 196.23C43.2318 195.95 43.0285 195.74 42.7752 195.6C42.5218 195.46 42.2485 195.39 41.9552 195.39C41.6618 195.39 41.3885 195.46 41.1352 195.6C40.8885 195.74 40.6918 195.95 40.5452 196.23C40.3985 196.503 40.3252 196.84 40.3252 197.24C40.3252 197.833 40.4752 198.293 40.7752 198.62C41.0818 198.94 41.4652 199.1 41.9252 199.1ZM46.4921 193.76C46.2854 193.76 46.1121 193.69 45.9721 193.55C45.8321 193.41 45.7621 193.237 45.7621 193.03C45.7621 192.823 45.8321 192.65 45.9721 192.51C46.1121 192.37 46.2854 192.3 46.4921 192.3C46.6921 192.3 46.8621 192.37 47.0021 192.51C47.1421 192.65 47.2121 192.823 47.2121 193.03C47.2121 193.237 47.1421 193.41 47.0021 193.55C46.8621 193.69 46.6921 193.76 46.4921 193.76ZM47.0521 201.08C47.0521 201.62 46.9154 202.01 46.6421 202.25C46.3754 202.497 45.9854 202.62 45.4721 202.62H44.8821V201.66H45.2721C45.5054 201.66 45.6688 201.613 45.7621 201.52C45.8621 201.433 45.9121 201.287 45.9121 201.08V194.49H47.0521V201.08ZM53.5988 197.11C53.5988 197.317 53.5855 197.503 53.5588 197.67H49.3488C49.3822 198.11 49.5455 198.463 49.8388 198.73C50.1322 198.997 50.4922 199.13 50.9188 199.13C51.5322 199.13 51.9655 198.873 52.2188 198.36H53.4488C53.2822 198.867 52.9788 199.283 52.5388 199.61C52.1055 199.93 51.5655 200.09 50.9188 200.09C50.3922 200.09 49.9188 199.973 49.4988 199.74C49.0855 199.5 48.7588 199.167 48.5188 198.74C48.2855 198.307 48.1688 197.807 48.1688 197.24C48.1688 196.673 48.2822 196.177 48.5088 195.75C48.7422 195.317 49.0655 194.983 49.4788 194.75C49.8988 194.517 50.3788 194.4 50.9188 194.4C51.4388 194.4 51.9022 194.513 52.3088 194.74C52.7155 194.967 53.0322 195.287 53.2588 195.7C53.4855 196.107 53.5988 196.577 53.5988 197.11ZM52.4088 196.75C52.4022 196.33 52.2522 195.993 51.9588 195.74C51.6655 195.487 51.3022 195.36 50.8688 195.36C50.4755 195.36 50.1388 195.487 49.8588 195.74C49.5788 195.987 49.4122 196.323 49.3588 196.75H52.4088ZM54.3407 197.24C54.3407 196.673 54.454 196.177 54.6807 195.75C54.914 195.317 55.234 194.983 55.6407 194.75C56.0474 194.517 56.514 194.4 57.0407 194.4C57.7074 194.4 58.2574 194.56 58.6907 194.88C59.1307 195.193 59.4274 195.643 59.5807 196.23H58.3507C58.2507 195.957 58.0907 195.743 57.8707 195.59C57.6507 195.437 57.374 195.36 57.0407 195.36C56.574 195.36 56.2007 195.527 55.9207 195.86C55.6474 196.187 55.5107 196.647 55.5107 197.24C55.5107 197.833 55.6474 198.297 55.9207 198.63C56.2007 198.963 56.574 199.13 57.0407 199.13C57.7007 199.13 58.1374 198.84 58.3507 198.26H59.5807C59.4207 198.82 59.1207 199.267 58.6807 199.6C58.2407 199.927 57.694 200.09 57.0407 200.09C56.514 200.09 56.0474 199.973 55.6407 199.74C55.234 199.5 54.914 199.167 54.6807 198.74C54.454 198.307 54.3407 197.807 54.3407 197.24ZM62.0468 195.42V198.47C62.0468 198.677 62.0935 198.827 62.1868 198.92C62.2868 199.007 62.4535 199.05 62.6868 199.05H63.3868V200H62.4868C61.9735 200 61.5801 199.88 61.3068 199.64C61.0335 199.4 60.8968 199.01 60.8968 198.47V195.42H60.2468V194.49H60.8968V193.12H62.0468V194.49H63.3868V195.42H62.0468ZM66.4375 200.09C66.0042 200.09 65.6142 200.013 65.2675 199.86C64.9275 199.7 64.6575 199.487 64.4575 199.22C64.2575 198.947 64.1508 198.643 64.1375 198.31H65.3175C65.3375 198.543 65.4475 198.74 65.6475 198.9C65.8542 199.053 66.1108 199.13 66.4175 199.13C66.7375 199.13 66.9842 199.07 67.1575 198.95C67.3375 198.823 67.4275 198.663 67.4275 198.47C67.4275 198.263 67.3275 198.11 67.1275 198.01C66.9342 197.91 66.6242 197.8 66.1975 197.68C65.7842 197.567 65.4475 197.457 65.1875 197.35C64.9275 197.243 64.7008 197.08 64.5075 196.86C64.3208 196.64 64.2275 196.35 64.2275 195.99C64.2275 195.697 64.3142 195.43 64.4875 195.19C64.6608 194.943 64.9075 194.75 65.2275 194.61C65.5542 194.47 65.9275 194.4 66.3475 194.4C66.9742 194.4 67.4775 194.56 67.8575 194.88C68.2442 195.193 68.4508 195.623 68.4775 196.17H67.3375C67.3175 195.923 67.2175 195.727 67.0375 195.58C66.8575 195.433 66.6142 195.36 66.3075 195.36C66.0075 195.36 65.7775 195.417 65.6175 195.53C65.4575 195.643 65.3775 195.793 65.3775 195.98C65.3775 196.127 65.4308 196.25 65.5375 196.35C65.6442 196.45 65.7742 196.53 65.9275 196.59C66.0808 196.643 66.3075 196.713 66.6075 196.8C67.0075 196.907 67.3342 197.017 67.5875 197.13C67.8475 197.237 68.0708 197.397 68.2575 197.61C68.4442 197.823 68.5408 198.107 68.5475 198.46C68.5475 198.773 68.4608 199.053 68.2875 199.3C68.1142 199.547 67.8675 199.74 67.5475 199.88C67.2342 200.02 66.8642 200.09 66.4375 200.09Z" fill="#F8FAFC"/>
</g>
<rect x="1" y="1" width="209" height="466" rx="15" stroke="#EF4444" stroke-width="2"/>
<defs>
<clipPath id="clip0_21_463">
<rect width="211" height="468" rx="16" fill="white"/>
</clipPath>
</defs>
</svg>
